# xmcd
#
# Track frame offsets:
#	180
#	11386
#	23573
#	36616
#
# Disc length: 646 seconds
#
# Revision: 0
# Processed by: cddbd v1.5.2PL0 Copyright (c) Steve Scherf et al.
# Submitted via: audiograbber 1.83.01
#
DISCID=25028404
DTITLE=Tom Astor - Meyn Suerland (Maxi)
DYEAR=1900
DGENRE=Country
TTITLE0=Reype Ähren
TTITLE1=Meyn Suerland
TTITLE2=Geröcht
TTITLE3=Chuniza Ballade '94
EXTD=
EXTT0=
EXTT1=
EXTT2=
EXTT3=
PLAYORDER=
